# xmcd CD database file
#
# Track frame offsets:
#	150
#	10275
#	18787
#	30962
#	44625
#	58137
#	70687
#	83975
#	97312
#	107962
#	119125
#	132937
#	145962
#	158800
#	170475
#	180350
#	193375
#	204212
#	216512
#	229325
#	239250
#	251387
#	264650
#	275525
#	288950
#	298925
#	310287
#
# Disc length: 4324 seconds
#
# Revision: 6
# Processed by: cddbd v1.5.2PL0 Copyright (c) Steve Scherf et al.
# Submitted via: CDex 1.99
#
DISCID=a110e21b
DTITLE=Various Artist - The Chess Story 1947-1975 CD 5: 1955-1956
DYEAR=1999
DGENRE=Soul/R&B
TTITLE0=The Hawketts - Mardi Gras Mambo
TTITLE1=Jimmy Lee and Wayne Walker - Love Me
TTITLE2=Little Walter - My Baby
TTITLE3=Lowell Fulson - Check Yourself
TTITLE4=Bo Diddley - I'm A Man
TTITLE5=Bo Diddley - Bo Diddley
TTITLE6=Percy Mayfield - Are You Out There?
TTITLE7=Muddy Waters - Mannish Boy
TTITLE8=Chuck Berry - Maybellene
TTITLE9=Bo Diddley - Diddley Daddy
TTITLE10=Wilie Dixon - Walking The Blues
TTITLE11=Willie Mabon - The Seventh Son
TTITLE12=Bo Diddley - Pretty Thing
TTITLE13=Sonny Boy Williamson - Don't Start Me Talkin'
TTITLE14=Bobby Tuggle - The $64,000 Question
TTITLE15=Lowell Fulson - Trouble Trouble
TTITLE16=Chuck Berry - Thirty Days
TTITLE17=The Moonglows - In My Diary
TTITLE18=Bobby Charles - See You Later Alligator
TTITLE19=The Rays - Tippity Top
TTITLE20=Muddy Waters - Trouble No More
TTITLE21=The Flamingos - I'll Be Home
TTITLE22=Little Walter - Who
TTITLE23=Chuck Berry - No Money Down
TTITLE24=Charles "Hungry" Williams - So Glad She's Mine
TTITLE25=Jimmy Rogers - You're The One
TTITLE26=Howlin' Wolf - Smokestack Lightnin'
EXTD=YEAR: 1999
EXTT0=
EXTT1=
EXTT2=
EXTT3=
EXTT4=
EXTT5=
EXTT6=
EXTT7=
EXTT8=
EXTT9=
EXTT10=
EXTT11=
EXTT12=
EXTT13=
EXTT14=
EXTT15=
EXTT16=
EXTT17=
EXTT18=
EXTT19=
EXTT20=
EXTT21=
EXTT22=
EXTT23=
EXTT24=
EXTT25=
EXTT26=
PLAYORDER=
